<svg xmlns="http://www.w3.org/2000/svg" xmlns:xlink="http://www.w3.org/1999/xlink" width="668.758" height="490.699"><defs><linearGradient id="d"><stop offset="0" stop-color="#504646"/><stop offset=".5" stop-color="#281e1e"/><stop offset="1" stop-color="#0a0000"/></linearGradient><linearGradient id="a"><stop offset="0" stop-color="#486815"/><stop offset="1" stop-color="#d9ddd4"/></linearGradient><linearGradient id="b"><stop offset="0" stop-color="#3c2828"/><stop offset="1" stop-color="#0a0000"/></linearGradient><linearGradient id="c"><stop offset="0" stop-color="#281414"/><stop offset="1"/></linearGradient><filter id="f" x="-.456" width="1.911" y="-.911" height="2.822" color-interpolation-filters="sRGB"><feGaussianBlur stdDeviation="3.355"/></filter><filter id="e" x="-.55" width="2.099" y="-1.099" height="3.198" color-interpolation-filters="sRGB"><feGaussianBlur stdDeviation="20.353"/></filter><radialGradient xlink:href="#b" id="j" gradientUnits="userSpaceOnUse" gradientTransform="matrix(3.56818 0 0 4.32059 -1929.34 -2893.103)" cx="656.139" cy="846.41" fx="656.139" fy="846.41" r="34.027"/><radialGradient xlink:href="#c" id="i" gradientUnits="userSpaceOnUse" gradientTransform="matrix(.00006 14.31316 -12.75448 .0001 11290.241 -7579.127)" cx="591.851" cy="860.851" fx="591.851" fy="860.851" r="11.572"/><radialGradient xlink:href="#d" id="g" gradientUnits="userSpaceOnUse" gradientTransform="matrix(1.33408 0 0 1.34212 -174.751 -284.607)" cx="523.093" cy="831.689" fx="523.093" fy="831.689" r="3.304"/><radialGradient xlink:href="#d" id="h" gradientUnits="userSpaceOnUse" gradientTransform="matrix(1.33408 0 0 1.34212 -174.751 -284.607)" cx="523.093" cy="831.689" fx="523.093" fy="831.689" r="3.304"/></defs><path transform="matrix(3.58415 0 0 2.14697 -1336.499 -1576.443)" d="M510.632 891.748a44.447 22.223 0 1 1-88.893 0 44.447 22.223 0 1 1 88.893 0z" opacity=".883" filter="url(#e)"/><path transform="matrix(2.56644 0 0 2.22236 -1172.006 -1703.195)" d="M582.1 903.743a8.839 4.42 0 1 1-17.677 0 8.839 4.42 0 1 1 17.677 0z" opacity=".883" filter="url(#f)"/><path d="M582.1 903.743a8.839 4.42 0 1 1-17.677 0 8.839 4.42 0 1 1 17.677 0z" transform="matrix(2.56644 0 0 2.22236 -1108.028 -1687.876)" opacity=".883" filter="url(#f)"/><path transform="matrix(2.56644 0 0 2.22236 -1038.643 -1684.271)" d="M582.1 903.743a8.839 4.42 0 1 1-17.677 0 8.839 4.42 0 1 1 17.677 0z" opacity=".883" filter="url(#f)"/><path d="M582.1 903.743a8.839 4.42 0 1 1-17.677 0 8.839 4.42 0 1 1 17.677 0z" transform="matrix(2.56644 0 0 2.22236 -1157.589 -1651.832)" opacity=".883" filter="url(#f)"/><path transform="matrix(2.56644 0 0 2.22236 -1239.589 -1667.601)" d="M582.1 903.743a8.839 4.42 0 1 1-17.677 0 8.839 4.42 0 1 1 17.677 0z" opacity=".883" filter="url(#f)"/><path d="M582.1 903.743a8.839 4.42 0 1 1-17.677 0 8.839 4.42 0 1 1 17.677 0z" transform="matrix(2.56644 0 0 2.22236 -1060.27 -1650.03)" opacity=".883" filter="url(#f)"/><path d="M244.138 247.598s-96.85-30.585-89.205-161.843" fill="none" stroke="#1e0a0a" stroke-width="9.634" stroke-linecap="round"/><path d="M526.406 835.196a3.304 3.571 0 1 1 .765-1.101" transform="matrix(5.92122 0 0 5.70907 -2951.053 -4681.295)" fill="url(#g)"/><path d="M267.105 212.832s-86.849-52.657-48.326-178.367" fill="none" stroke="#1e0a0a" stroke-width="9.634" stroke-linecap="round"/><path transform="matrix(5.75268 1.40269 -1.35243 5.54657 -1669.523 -5332.68)" d="M526.406 835.196a3.304 3.571 0 1 1 .765-1.101" fill="url(#h)"/><path d="M443.342 301.518c.872-6.899-2.348-15.151-3.24 14.53-18.419.265-25.037 11.725-6.102 13.18 18.935 1.456 19.425-2.233 11.473-10.252 1.503-34.21-3.004-10.56-2.131-17.458zM308.176 288.677c.873-6.898-2.347-21.234-3.239 8.447-18.42.266-25.038 11.726-6.102 13.182 18.935 1.455 19.425-2.234 11.473-10.253 1.503-34.21-3.004-4.477-2.132-11.376zM370.578 298.815c.872-6.899-2.573-20.558-3.465 9.122-18.42.267-25.038 11.726-6.102 13.182 18.935 1.455 19.425-2.234 11.473-10.252 1.503-34.212-2.779-5.154-1.906-12.052z" fill="#140a0a" stroke="#000" stroke-width="1.933" stroke-linecap="round" stroke-linejoin="round"/><path d="M260.266 286.435a10.813 10.813 0 1 1 19.139 9.189"/><path d="M357.47 800.236c-19.593 6.88-50.145 26.785-59.357 68.457-20.126-7.237-20.825-7.643-28.354-21.026-2.248-3.995 5.054-38.943 34.726-50.019 28.166-10.513 56.61 3.723 52.985 2.588z" fill="url(#i)" stroke="#0a0a0a" stroke-width="2.498" stroke-linecap="round" stroke-linejoin="round" transform="translate(-43.458 -589.247)"/><path d="M323.38 307.35a10.813 10.813 0 1 1 21.02 2.978M411.7 313.689a10.813 10.813 0 1 1 21.187-1.362"/><path d="M397.725 790.233c-45.213-.733-93.97 42.976-99.352 80.618 1.508 1.58 3.456 3.098 5.576 4.572 1.413-3.82 5.055-6.467 9.366-6.467 5.534 0 10.036 4.39 10.036 9.924 0 1.954-.706 3.81-1.673 5.352 12.524 4.761 28.445 8.65 45.717 11.597.759-4.783 4.817-8.475 9.813-8.475 5.534 0 10.035 4.501 10.035 10.036 0 .46-.052.894-.111 1.338 22.825 2.807 46.823 3.971 68.353 3.456-.222-.828-.446-1.666-.446-2.564 0-5.534 4.501-10.036 10.035-10.036s10.036 4.502 10.036 10.036c0 .54-.141 1.044-.223 1.56 27.135-2.26 47.281-7.924 50.512-17.617-22.224-53.093-77.272-87.559-127.674-93.33z" fill="url(#j)" stroke="#1e0a0a" stroke-width="2.498" stroke-linecap="round" stroke-linejoin="round" transform="translate(-43.458 -589.247)"/><path d="M327.216 206.21c59.076 5.584 129.097 44.037 149.988 93.21" fill="none" stroke="#1e0a0a" stroke-width="3.568" stroke-linecap="round"/><path d="M273.484 288.001c.873-6.899-33.435 11.882-34.327 41.562-18.42.267-25.038 11.726-6.103 13.182 18.936 1.455 19.426-2.234 11.473-10.252 1.503-34.211 28.084-37.593 28.957-44.492z" fill="#140a0a" stroke="#000" stroke-width="1.933" stroke-linecap="round" stroke-linejoin="round"/><path d="M335.439 303.767c-.486-7.576-18.732 14.136-19.616 43.82-18.262.267-24.824 11.728-6.05 13.184 18.773 1.456 19.259-2.234 11.374-10.254 1.49-34.216 14.778-39.175 14.292-46.75z" fill="#140a0a" stroke="#000" stroke-width="1.925" stroke-linecap="round" stroke-linejoin="round"/><path d="M424.699 306.37c-3.96-4.402-21.75 18.167-13.882 43.468-18.42.266-25.038 11.726-6.103 13.182 18.936 1.455 18.948-4.623 10.995-12.642-9.11-35.42 12.95-39.607 8.99-44.009z" fill="#140a0a" stroke="#000" stroke-width="1.933" stroke-linecap="round" stroke-linejoin="round"/></svg>